<svg width="40" height="38" viewBox="0 0 40 38" fill="none" xmlns="http://www.w3.org/2000/svg">
<g clip-path="url(#clip0)">
<path d="M31.7012 18.6612C36.2143 18.6612 39.8729 16.5866 39.8729 14.0276C39.8729 11.4686 36.2143 9.39404 31.7012 9.39404C27.188 9.39404 23.5294 11.4686 23.5294 14.0276C23.5294 16.5866 27.188 18.6612 31.7012 18.6612Z" fill="white"/>
<path fill-rule="evenodd" clip-rule="evenodd" d="M31.823 21.3265C25.9783 21.3265 23.6512 18.8817 23.6512 17.4656V23.5317C23.6512 26.0916 27.3101 28.1629 31.823 28.1629C36.3407 28.1629 39.9995 26.0916 39.9995 23.5317V17.6112C39.9995 19.0297 37.6701 21.3265 31.823 21.3265Z" fill="white"/>
<path fill-rule="evenodd" clip-rule="evenodd" d="M31.823 30.6994C26.5948 30.6994 23.6512 28.3486 23.6512 26.9324V32.9422C23.6512 35.502 27.3101 37.5758 31.823 37.5758C36.3407 37.5758 39.9995 35.502 39.9995 32.9422V26.8596C39.9995 28.2758 37.0536 30.6994 31.823 30.6994Z" fill="white"/>
<path d="M11.6164 9.26712C16.7325 9.26712 20.88 7.19261 20.88 4.63356C20.88 2.07452 16.7325 0 11.6164 0C6.50033 0 2.35291 2.07452 2.35291 4.63356C2.35291 7.19261 6.50033 9.26712 11.6164 9.26712Z" fill="white"/>
<path fill-rule="evenodd" clip-rule="evenodd" d="M11.9105 11.9327C5.28697 11.9327 2.64697 9.48791 2.64697 8.07178V14.1379C2.64697 16.6978 6.79521 18.7691 11.9105 18.7691C17.0305 18.7691 21.1764 16.6978 21.1764 14.1379V8.21738C21.1764 9.63587 18.534 11.9327 11.9105 11.9327Z" fill="white"/>
<path fill-rule="evenodd" clip-rule="evenodd" d="M11.9105 21.3053C5.98344 21.3053 2.64697 18.9545 2.64697 17.5384V23.5482C2.64697 26.108 6.79521 28.1817 11.9105 28.1817C17.0305 28.1817 21.1764 26.108 21.1764 23.5482V17.4656C21.1764 18.8817 17.8352 21.3053 11.9105 21.3053Z" fill="white"/>
<path fill-rule="evenodd" clip-rule="evenodd" d="M11.9105 30.6994C5.98344 30.6994 2.64697 28.3486 2.64697 26.9324V32.9422C2.64697 35.502 6.79521 37.5758 11.9105 37.5758C17.0305 37.5758 21.1764 35.502 21.1764 32.9422V26.8596C21.1764 28.2758 17.8352 30.6994 11.9105 30.6994Z" fill="white"/>
</g>
<defs>
<clipPath id="clip0">
<rect width="40" height="37.5758" fill="white"/>
</clipPath>
</defs>
</svg>
