<svg width="45" height="46" viewBox="0 0 45 46" fill="none" xmlns="http://www.w3.org/2000/svg">
<path d="M16.875 19.1666H18.75C19.2473 19.1666 19.7242 18.9646 20.0758 18.6052C20.4275 18.2458 20.625 17.7582 20.625 17.2499C20.625 16.7416 20.4275 16.2541 20.0758 15.8946C19.7242 15.5352 19.2473 15.3332 18.75 15.3333H16.875C16.3777 15.3332 15.9008 15.5352 15.5492 15.8946C15.1975 16.2541 15 16.7416 15 17.2499C15 17.7582 15.1975 18.2458 15.5492 18.6052C15.9008 18.9646 16.3777 19.1666 16.875 19.1666ZM26.6437 23.7397L23.5069 27.8644L21.8794 26.3675C21.6896 26.1927 21.4669 26.0594 21.2249 25.9758C20.983 25.8922 20.7269 25.86 20.4723 25.8811C20.2177 25.9023 19.97 25.9764 19.7445 26.099C19.5189 26.2215 19.3203 26.3898 19.1606 26.5937L15.4106 31.3853C15.2567 31.5819 15.1422 31.8075 15.0736 32.0494C15.0051 32.2912 14.9837 32.5444 15.0109 32.7947C15.0381 33.0449 15.1132 33.2872 15.2319 33.5078C15.3507 33.7284 15.5108 33.9228 15.7031 34.0802C15.8954 34.2375 16.1162 34.3545 16.3527 34.4246C16.5893 34.4948 16.837 34.5165 17.0818 34.4888C17.3266 34.461 17.5637 34.3842 17.7794 34.2628C17.9952 34.1414 18.1855 33.9777 18.3394 33.7812L20.8481 30.5746L22.4963 32.0907C22.6878 32.2666 22.9127 32.4004 23.157 32.4836C23.4013 32.5668 23.6597 32.5977 23.9162 32.5743C24.1727 32.5509 24.4217 32.4738 24.6477 32.3477C24.8738 32.2216 25.072 32.0493 25.23 31.8415L29.6063 26.0915C29.9113 25.6899 30.0479 25.1809 29.9858 24.6764C29.9237 24.1719 29.6682 23.7133 29.2753 23.4015C28.8825 23.0896 28.3845 22.95 27.891 23.0135C27.3975 23.0769 26.9488 23.3382 26.6437 23.7397ZM37.4775 17.1311C37.4523 16.6693 37.266 16.2321 36.9525 15.8987L36.9506 15.8948L25.7006 4.39484L25.6988 4.39292C25.542 4.23829 25.3598 4.11308 25.1606 4.023C25.1044 3.99617 25.0481 3.98084 24.9881 3.95975C24.8268 3.90167 24.6583 3.86683 24.4875 3.85625C24.45 3.85434 24.4144 3.83325 24.375 3.83325H13.125C11.6336 3.83477 10.2037 4.44106 9.14917 5.51907C8.0946 6.59707 7.50149 8.05872 7.5 9.58325V36.4166C7.50149 37.9411 8.0946 39.4028 9.14917 40.4808C10.2037 41.5588 11.6336 42.1651 13.125 42.1666H31.875C33.3664 42.1651 34.7963 41.5588 35.8508 40.4808C36.9054 39.4028 37.4985 37.9411 37.5 36.4166V17.2499C37.5 17.2077 37.4794 17.1732 37.4775 17.1311ZM26.25 10.3768L31.0988 15.3333H28.125C27.6279 15.3327 27.1512 15.1306 26.7997 14.7713C26.4482 14.412 26.2505 13.9248 26.25 13.4166V10.3768ZM33.75 36.4166C33.7495 36.9248 33.5518 37.412 33.2003 37.7713C32.8488 38.1306 32.3721 38.3327 31.875 38.3332H13.125C12.6279 38.3327 12.1512 38.1306 11.7997 37.7713C11.4482 37.412 11.2505 36.9248 11.25 36.4166V9.58325C11.2505 9.07508 11.4482 8.58786 11.7997 8.22852C12.1512 7.86919 12.6279 7.66709 13.125 7.66658H22.5V13.4166C22.5015 14.9411 23.0946 16.4028 24.1492 17.4808C25.2037 18.5588 26.6336 19.1651 28.125 19.1666H33.75V36.4166Z" fill="white"/>
</svg>
