<svg width="52" height="52" viewBox="0 0 52 52" fill="none" xmlns="http://www.w3.org/2000/svg">
<path d="M32.5002 34.6666C33.0748 34.6666 33.6259 34.4383 34.0322 34.032C34.4386 33.6257 34.6668 33.0746 34.6668 32.4999V19.4999C34.6668 18.9253 34.4386 18.3742 34.0322 17.9679C33.6259 17.5615 33.0748 17.3333 32.5002 17.3333H19.5002C18.9255 17.3333 18.3744 17.5615 17.9681 17.9679C17.5618 18.3742 17.3335 18.9253 17.3335 19.4999V32.4999C17.3335 33.0746 17.5618 33.6257 17.9681 34.032C18.3744 34.4383 18.9255 34.6666 19.5002 34.6666H32.5002Z" fill="white"/>
<path d="M10.8333 34.6667H13V17.3333C13 16.1841 13.4565 15.0819 14.2692 14.2692C15.0819 13.4565 16.1841 13 17.3333 13H34.6667V10.8333C34.6667 9.68406 34.2101 8.58186 33.3975 7.7692C32.5848 6.95655 31.4826 6.5 30.3333 6.5H10.8333C9.68406 6.5 8.58186 6.95655 7.7692 7.7692C6.95655 8.58186 6.5 9.68406 6.5 10.8333V30.3333C6.5 31.4826 6.95655 32.5848 7.7692 33.3975C8.58186 34.2101 9.68406 34.6667 10.8333 34.6667ZM17.3333 41.1667C17.3333 42.3159 17.7899 43.4181 18.6025 44.2308C19.4152 45.0435 20.5174 45.5 21.6667 45.5H41.1667C42.3159 45.5 43.4181 45.0435 44.2308 44.2308C45.0435 43.4181 45.5 42.3159 45.5 41.1667V21.6667C45.5 20.5174 45.0435 19.4152 44.2308 18.6025C43.4181 17.7899 42.3159 17.3333 41.1667 17.3333H39V34.6667C39 35.8159 38.5435 36.9181 37.7308 37.7308C36.9181 38.5435 35.8159 39 34.6667 39H17.3333V41.1667Z" fill="white"/>
</svg>
