<svg width="40" height="40" viewBox="0 0 40 40" fill="none" xmlns="http://www.w3.org/2000/svg">
<path d="M0 19.6967V3.75C0 1.67891 1.67891 0 3.75 0H19.6967C20.6913 5.2006e-06 21.6451 0.395097 22.3484 1.09836L38.9017 17.6516C40.3661 19.1161 40.3661 21.4905 38.9017 22.9549L22.9549 38.9017C21.4905 40.3661 19.1161 40.3661 17.6516 38.9017L1.09836 22.3484C0.395097 21.6451 5.2006e-06 20.6913 0 19.6967H0ZM8.75 5C6.67891 5 5 6.67891 5 8.75C5 10.8211 6.67891 12.5 8.75 12.5C10.8211 12.5 12.5 10.8211 12.5 8.75C12.5 6.67891 10.8211 5 8.75 5Z" fill="white"/>
</svg>
